<svg xmlns="http://www.w3.org/2000/svg" width="170.653" height="157.694" viewBox="0 0 170.653 157.694">
  <g id="Requirements" transform="translate(-1169.057 -912)">
    <path id="Path_157" data-name="Path 157" d="M215.082,143.094a10.355,10.355,0,0,0-10.343,10.343V272.6a10.355,10.355,0,0,0,10.343,10.343h87.413A10.355,10.355,0,0,0,312.838,272.6V153.437a10.355,10.355,0,0,0-10.343-10.343Z" transform="translate(964.318 781.5)" fill="#888"/>
    <rect id="Rectangle_47" data-name="Rectangle 47" width="97.341" height="125.153" transform="translate(1174.435 931.941)" fill="#fff"/>
    <rect id="Rectangle_48" data-name="Rectangle 48" width="71.891" height="4.723" transform="translate(1187.161 954.374)" fill="#9c1804"/>
    <rect id="Rectangle_49" data-name="Rectangle 49" width="71.891" height="4.723" transform="translate(1187.161 966.968)" fill="#9c1804"/>
    <rect id="Rectangle_50" data-name="Rectangle 50" width="71.891" height="4.723" transform="translate(1187.161 979.562)" fill="#9c1804"/>
    <rect id="Rectangle_51" data-name="Rectangle 51" width="71.891" height="4.723" transform="translate(1187.161 992.156)" fill="#9c1804"/>
    <rect id="Rectangle_52" data-name="Rectangle 52" width="71.891" height="4.723" transform="translate(1187.161 1004.75)" fill="#9c1804"/>
    <rect id="Rectangle_53" data-name="Rectangle 53" width="71.891" height="4.723" transform="translate(1187.161 1017.344)" fill="#9c1804"/>
    <rect id="Rectangle_54" data-name="Rectangle 54" width="71.891" height="4.723" transform="translate(1187.161 1029.938)" fill="#9c1804"/>
    <rect id="Rectangle_63" data-name="Rectangle 63" width="20.506" height="26.365" transform="translate(1290.349 1027.959) rotate(-10.37)" fill="#e6e6e6"/>
    <rect id="Rectangle_64" data-name="Rectangle 64" width="15.144" height="0.995" transform="translate(1293.837 1032.125) rotate(-10.37)" fill="#fff"/>
    <rect id="Rectangle_65" data-name="Rectangle 65" width="15.144" height="0.995" transform="translate(1294.314 1034.735) rotate(-10.37)" fill="#fff"/>
    <rect id="Rectangle_66" data-name="Rectangle 66" width="15.144" height="0.995" transform="translate(1294.792 1037.344) rotate(-10.37)" fill="#fff"/>
    <rect id="Rectangle_67" data-name="Rectangle 67" width="15.144" height="0.995" transform="translate(1295.269 1039.954) rotate(-10.37)" fill="#fff"/>
    <rect id="Rectangle_68" data-name="Rectangle 68" width="15.144" height="0.995" transform="translate(1295.747 1042.564) rotate(-10.37)" fill="#fff"/>
    <rect id="Rectangle_69" data-name="Rectangle 69" width="15.144" height="0.995" transform="translate(1296.225 1045.173) rotate(-10.37)" fill="#fff"/>
    <rect id="Rectangle_70" data-name="Rectangle 70" width="15.144" height="0.995" transform="translate(1296.702 1047.783) rotate(-10.37)" fill="#fff"/>
    <path id="Path_158" data-name="Path 158" d="M390.223,91.313h-8.578V89.557a4.8,4.8,0,0,0-4.8-4.8h-9.284a4.8,4.8,0,0,0-4.8,4.8v1.756h-8.578a4.8,4.8,0,0,0-4.8,4.8v13.3h45.653v-13.3a4.8,4.8,0,0,0-4.8-4.8Z" transform="translate(850.906 827.246)" fill="#888"/>
    <path id="Path_159" data-name="Path 159" d="M438.765,695.667a15.116,15.116,0,0,1,4.56-2.421,4.8,4.8,0,0,1,4.516.829,2.767,2.767,0,0,1,.668,3.5,2.223,2.223,0,0,1-1.473,1.072,1.774,1.774,0,0,1-1.6-.623,1.627,1.627,0,0,1-.407-1.6,2.094,2.094,0,0,1,1.342-1.14,9.93,9.93,0,0,1,2-.413l2.783-.381,11.391-1.559,12.686-1.737a.4.4,0,0,0,.275-.484.4.4,0,0,0-.484-.275l-25.242,3.456c-.913.125-1.839.214-2.742.4a4.611,4.611,0,0,0-1.969.818,2.35,2.35,0,0,0-.01,3.652,2.6,2.6,0,0,0,3.748-.281,3.4,3.4,0,0,0,.258-4.164,5.049,5.049,0,0,0-4.924-2.021,13.417,13.417,0,0,0-5.78,2.7C437.952,695.271,438.345,695.954,438.765,695.667Z" transform="translate(781.262 352.326)" fill="#3f3d56"/>
    <path id="Path_160" data-name="Path 160" d="M850.781,579.591l.262,2.624s-1.574,5.772,1.837,5.772.787-5.772.787-5.772l.262-2.1Z" transform="translate(457.818 439.231)" fill="#a0616a"/>
    <path id="Path_161" data-name="Path 161" d="M947.9,539.1l-1.2,2.346s-4.455,3.993-1.591,5.845,3.794-4.421,3.794-4.421l1.36-1.62Z" transform="translate(384.53 470.983)" fill="#a0616a"/>
    <path id="Path_162" data-name="Path 162" d="M870.591,582.9l3.673,24.926,1.837,17.842s1.574,3.936,6.822.525l-.787-10.233-.525-9.183s-.525-8.921-1.049-10.495.262-6.822.262-6.822l2.1-8.658Z" transform="translate(442.205 438.279)" fill="#888"/>
    <path id="Path_163" data-name="Path 163" d="M876.4,786.211l-2.1,2.361s-3.149-1.049-3.936,1.05,6.035,2.624,6.035,2.624,7.084.525,7.084,0-.19-4.538-1.144-4.762S876.4,786.211,876.4,786.211Z" transform="translate(442.435 277.215)"/>
    <path id="Path_164" data-name="Path 164" d="M916.777,577.781l3.673,26.237,1.837,17.842s1.574,3.936,6.822.525l-.787-10.233-.525-9.183s-.525-8.921-1.05-10.5.262-6.822.262-6.822l-.525-9.708Z" transform="translate(405.99 442.091)" fill="#888"/>
    <path id="Path_165" data-name="Path 165" d="M922.582,786.211l-2.1,2.361s-3.149-1.049-3.936,1.05,6.035,2.624,6.035,2.624,7.084.525,7.084,0-.19-4.538-1.144-4.762S922.582,786.211,922.582,786.211Z" transform="translate(406.219 277.215)"/>
    <circle id="Ellipse_24" data-name="Ellipse 24" cx="5.51" cy="5.51" r="5.51" transform="translate(1309.386 967.396)" fill="#a0616a"/>
    <path id="Path_166" data-name="Path 166" d="M678.213,293.685l2.361,3.936-6.035,2.624-.787-4.723Z" transform="translate(640.749 681.714)" fill="#a0616a"/>
    <path id="Path_167" data-name="Path 167" d="M862.4,394.742s-5.51-.525-7.609,2.886l-5.179,3.936a2.985,2.985,0,0,0-1.153,2.768l4.5,33.964,6.559-.262,10.758-2.1,3.148-.787-1.574-13.906s-1.837-5.51.262-9.183L871.058,399.2l-7.347-2.886Z" transform="translate(459.581 584.199)" fill="#9c1804"/>
    <path id="Path_168" data-name="Path 168" d="M848.382,428.927l-.394-.656s-.525,0-.525,1.049-.918,23.745-.918,23.745l-.262,8.658,4.985.525,1.837-16.267-.787-10.757Z" transform="translate(461.266 557.885)" fill="#9c1804"/>
    <path id="Path_169" data-name="Path 169" d="M936.224,413.079l3.673.525a24.378,24.378,0,0,1,3.673,4.985c1.574,2.886,6.3,8.4,5.248,12.594a117.124,117.124,0,0,1-4.2,11.807l-4.985-2.1s3.936-9.183,3.673-9.97-3.411-5.51-3.411-5.51Z" transform="translate(390.741 569.798)" fill="#9c1804"/>
    <path id="Path_170" data-name="Path 170" d="M853.442,336.911s-4.46-.262-1.574-3.149c0,0,2.361-1.049,3.411-.525,0,0,1.574-1.049,1.574-.525,0,0,5.51-1.574,6.3,3.936s-.525,8.134-.525,8.134l-3.673-.262s.787-4.46-2.1-3.936c0,0-2.361.787-2.624,0S853.442,336.911,853.442,336.911Z" transform="translate(457.649 632.978)"/>
    <path id="Path_171" data-name="Path 171" d="M666.723,406.645l2.362-15.742L667.51,381.2l.525,10.559-1.574,14.891Z" transform="translate(646.467 613.095)" opacity="0.2"/>
  </g>
</svg>
